<?xml version="1.0" standalone="no"?>
<!DOCTYPE svg PUBLIC "-//W3C//DTD SVG 20010904//EN"
 "http://www.w3.org/TR/2001/REC-SVG-20010904/DTD/svg10.dtd">
<svg version="1.0" xmlns="http://www.w3.org/2000/svg"
 width="512.000000pt" height="512.000000pt" viewBox="0 0 512.000000 512.000000"
 preserveAspectRatio="xMidYMid meet">
<metadata>
Created by potrace 1.11, written by Peter Selinger 2001-2013
</metadata>
<g transform="translate(0.000000,512.000000) scale(0.100000,-0.100000)"
fill="#000000" stroke="none">
<path d="M1840 4020 l0 -730 -730 0 -730 0 0 -730 0 -730 730 0 730 0 0 -730
0 -730 735 0 735 0 0 730 0 730 730 0 730 0 0 730 0 730 -730 0 -730 0 0 730
0 730 -735 0 -735 0 0 -730z m884 58 c75 -130 136 -239 136 -242 0 -3 -129 -6
-286 -6 -157 0 -284 4 -282 8 15 41 284 490 289 484 3 -4 67 -114 143 -244z
m576 -1518 l0 -730 -725 0 -725 0 0 730 0 730 725 0 725 0 0 -730z m-1800 0
l0 -390 -390 0 -390 0 0 390 0 390 390 0 390 0 0 -390z m2601 143 c132 -76
239 -141 239 -144 0 -4 -100 -64 -222 -134 -123 -71 -233 -135 -245 -143 l-23
-14 0 286 c0 157 3 286 6 286 4 0 114 -62 245 -137z m-1241 -1417 c0 -3 -279
-487 -285 -494 -3 -3 -285 484 -285 492 0 4 128 6 285 6 157 0 285 -2 285 -4z"/>
</g>
</svg>
