<?xml version="1.0" standalone="no"?>
<!DOCTYPE svg PUBLIC "-//W3C//DTD SVG 20010904//EN"
 "http://www.w3.org/TR/2001/REC-SVG-20010904/DTD/svg10.dtd">
<svg version="1.0" xmlns="http://www.w3.org/2000/svg"
 width="598.000000pt" height="598.000000pt" viewBox="0 0 598.000000 598.000000"
 preserveAspectRatio="xMidYMid meet">
<metadata>
Created by potrace 1.11, written by Peter Selinger 2001-2013
</metadata>
<g transform="translate(0.000000,598.000000) scale(0.100000,-0.100000)"
fill="#000000" stroke="none">
<path d="M2000 4985 l0 -995 -1000 0 -1000 0 0 -1000 0 -1000 1000 0 1000 0 0
-995 0 -995 995 0 995 0 0 995 0 995 995 0 995 0 0 1000 0 1000 -995 0 -995 0
0 995 0 995 -995 0 -995 0 0 -995z m1196 90 c107 -186 193 -340 191 -342 -2
-2 -180 -2 -396 -1 l-391 3 197 342 c108 189 198 341 201 339 2 -2 91 -156
198 -341z m794 -2085 l0 -1000 -995 0 -995 0 0 1000 0 1000 995 0 995 0 0
-1000z m-2460 5 l0 -535 -535 0 -535 0 0 535 0 535 535 0 535 0 0 -535z m3563
187 l329 -190 -69 -40 c-362 -210 -596 -344 -608 -349 -13 -4 -15 49 -15 391
0 375 1 396 18 387 9 -5 165 -95 345 -199z m-1705 -1930 c-1 -4 -91 -160 -198
-345 -173 -298 -197 -335 -208 -320 -7 10 -51 83 -96 163 -46 80 -131 227
-189 328 l-106 182 400 0 c220 0 399 -4 397 -8z"/>
</g>
</svg>
